<?xml version="1.0" standalone="no"?><!DOCTYPE svg PUBLIC "-//W3C//DTD SVG 1.1//EN" "http://www.w3.org/Graphics/SVG/1.1/DTD/svg11.dtd"><svg t="1686028738386" class="icon" viewBox="0 0 1024 1024" version="1.1" xmlns="http://www.w3.org/2000/svg" p-id="4332" xmlns:xlink="http://www.w3.org/1999/xlink" width="200" height="200"><path d="M1009.335014 660.923355c-17.472983-14.799986-43.640957-12.652988-58.439943 4.828995L733.247284 922.656099l-93.728909-86.875915c-16.794984-15.579985-43.033958-14.557986-58.592942 2.226998-15.568985 16.793984-14.566986 43.022958 2.226998 58.592942l125.526877 116.344887a41.43496 41.43496 0 0 0 28.182972 11.054989c0.829999 0 1.659998-0.021 2.499998-0.071a41.46496 41.46496 0 0 0 29.134972-14.586986l245.66776-289.976717c14.798986-17.472983 12.642988-43.640957-4.829996-58.441942z" p-id="4333"></path><path d="M511.9995 511.9995m-115.148888 0a115.148888 115.148888 0 1 0 230.297776 0 115.148888 115.148888 0 1 0-230.297776 0Z" fill="#040000" p-id="4334"></path><path d="M825.573194 511.9995c0-173.181831-140.392863-313.573694-313.573694-313.573694-173.181831 0-313.573694 140.391863-313.573694 313.573694 0 116.055887 63.051938 217.377788 156.764847 271.600735l49.982951-86.573916c-15.951984-9.244991-30.80897-20.62098-44.193957-34.006966-40.337961-40.338961-62.553939-93.971908-62.553938-151.019853s22.215978-110.680892 62.553938-151.019853c40.338961-40.337961 93.971908-62.553939 151.019853-62.553938s110.680892 22.215978 151.019853 62.553938c40.338961 40.338961 62.554939 93.971908 62.554938 151.019853 0 57.046944-22.215978 110.680892-62.554938 151.019853-13.343987 13.343987-28.149973 24.687976-44.045957 33.917966l75.568926 70.042932c79.337923-56.898944 131.030872-149.899854 131.030872-254.980751z" fill="#040000" p-id="4335"></path><path d="M982.54004 591.091423c11.806988 0 23.441977 2.079998 34.401967 6.033994A515.381497 515.381497 0 0 0 1023.999 511.9995C1023.999 229.229776 794.769224 0 511.9995 0S0 229.229776 0 511.9995c0 189.493815 102.946899 354.938653 255.95975 443.473567l49.989951-86.584916c-31.02397-17.933982-59.582942-39.864961-85.277916-65.560935-37.869963-37.869963-67.589934-81.94092-88.335914-130.989873C110.878892 621.608393 99.999902 567.663446 99.999902 511.9995s10.878989-109.608893 32.335969-160.337843c20.74598-49.048952 50.465951-93.120909 88.335914-130.989872s81.94092-67.589934 130.989872-88.335914C402.390607 110.878892 456.335554 99.999902 511.9995 99.999902c55.662946 0 109.608893 10.878989 160.337843 32.335969 49.048952 20.74598 93.119909 50.465951 130.989873 88.335914 37.868963 37.869963 67.589934 81.94092 88.335913 130.989872C913.120108 402.390607 923.999098 456.335554 923.999098 511.9995c0 37.823963-5.028995 74.853927-14.980986 110.622892 19.094981-20.10198 45.574955-31.530969 73.521928-31.530969z" fill="#040000" p-id="4336"></path></svg>