<?xml version="1.0" standalone="no"?><!DOCTYPE svg PUBLIC "-//W3C//DTD SVG 1.1//EN" "http://www.w3.org/Graphics/SVG/1.1/DTD/svg11.dtd"><svg t="1689232097464" class="icon" viewBox="0 0 1024 1024" version="1.1" xmlns="http://www.w3.org/2000/svg" p-id="2866" xmlns:xlink="http://www.w3.org/1999/xlink" width="200" height="200"><path d="M0 859.118644h1024v95.457627H0zM468.610169 242.983051h86.779662v520.677966H468.610169zM199.59322 763.661017a173.559322 173.559322 0 0 0 173.559322-173.559322V52.067797H286.372881v538.033898a86.779661 86.779661 0 1 1-86.779661-86.779661V416.542373a173.559322 173.559322 0 0 0 0 347.118644zM824.40678 763.661017a173.559322 173.559322 0 0 0 0-347.118644v86.779661a86.779661 86.779661 0 1 1-86.779661 86.779661V52.067797H650.847458v538.033898a173.559322 173.559322 0 0 0 173.559322 173.559322z" p-id="2867"></path></svg>