<svg xmlns="http://www.w3.org/2000/svg" xmlns:xlink="http://www.w3.org/1999/xlink" width="200" height="200" class="icon" p-id="4175" t="1686028729075" version="1.1" viewBox="0 0 1024 1024"><path d="M884.871136 830.105189l127.784875-127.785875c15.123985-15.122985 15.123985-39.642961 0-54.764946-15.121985-15.123985-39.641961-15.122985-54.764946 0L830.105189 775.340243 702.319314 647.555368c-15.122985-15.122985-39.642961-15.122985-54.764946 0-15.123985 15.121985-15.123985 39.641961 0 54.764946L775.339243 830.106189 647.555368 957.892065c-15.123985 15.122985-15.123985 39.642961 0 54.764946 15.121985 15.123985 39.641961 15.123985 54.764946 0l127.785875-127.784875 127.785876 127.784875c15.122985 15.123985 39.642961 15.123985 54.764946 0 15.123985-15.121985 15.123985-39.641961 0-54.764946L884.871136 830.105189z" p-id="4176"/><path fill="#040000" d="M511.9995 511.9995m-115.148888 0a115.148888 115.148888 0 1 0 230.297776 0 115.148888 115.148888 0 1 0-230.297776 0Z" p-id="4177"/><path fill="#040000" d="M985.274038 576.212437c11.767989 0 23.217977 2.050998 33.950967 5.971994A516.489496 516.489496 0 0 0 1023.999 511.9995C1023.999 229.229776 794.769224 0 511.9995 0S0 229.229776 0 511.9995c0 189.493815 102.946899 354.938653 255.95975 443.473567l49.989951-86.584916c-31.02397-17.933982-59.582942-39.864961-85.277916-65.560935-37.869963-37.869963-67.589934-81.94092-88.335914-130.989873C110.878892 621.608393 99.999902 567.663446 99.999902 511.9995s10.878989-109.608893 32.335969-160.337843c20.74598-49.048952 50.465951-93.120909 88.335914-130.989872s81.94092-67.589934 130.989872-88.335914C402.390607 110.878892 456.335554 99.999902 511.9995 99.999902c55.662946 0 109.608893 10.878989 160.337843 32.335969 49.048952 20.74598 93.119909 50.465951 130.989873 88.335914 37.868963 37.869963 67.589934 81.94092 88.335913 130.989872C913.120108 402.390607 923.999098 456.335554 923.999098 511.9995c0 32.602968-3.737996 64.613937-11.141989 95.736907l2.607997-2.607998c18.646982-18.646982 43.438958-28.915972 69.808932-28.915972z" p-id="4178"/><path fill="#040000" d="M792.308226 652.690363c21.279979-42.310959 33.265968-90.100912 33.265968-140.690863 0-173.181831-140.392863-313.573694-313.573694-313.573694-173.181831 0-313.573694 140.391863-313.573694 313.573694 0 116.055887 63.051938 217.377788 156.764847 271.600735l49.982951-86.573916c-15.951984-9.244991-30.80897-20.62098-44.193957-34.006966-40.337961-40.338961-62.553939-93.971908-62.553938-151.019853s22.215978-110.680892 62.553938-151.019853c40.338961-40.337961 93.971908-62.553939 151.019853-62.553938s110.680892 22.215978 151.019853 62.553938c40.338961 40.338961 62.554939 93.971908 62.554938 151.019853 0 24.886976-4.229996 49.121952-12.345988 71.88893 11.633989 4.894995 22.323978 12.046988 31.51897 21.239979l47.559953 47.561954z" p-id="4179"/></svg>