<?xml version="1.0" standalone="no"?><!DOCTYPE svg PUBLIC "-//W3C//DTD SVG 1.1//EN" "http://www.w3.org/Graphics/SVG/1.1/DTD/svg11.dtd"><svg height="265" node-id="1" sillyvg="true" template-height="265" template-width="249" version="1.1" viewBox="0 0 249 265" width="249" xmlns="http://www.w3.org/2000/svg" xmlns:xlink="http://www.w3.org/1999/xlink"><defs node-id="14"></defs><g node-id="31"><path d="M 249.21 252.51 L 246.52 252.92 L 238.81 253.71 L 227.73 254.58 L 214.94 255.19 L 208.37 255.30 L 202.09 255.23 L 196.01 254.93 L 190.85 254.39 L 187.50 253.81 L 184.88 253.11 L 182.85 252.33 L 181.07 251.23 L 180.11 250.05 L 179.76 248.75 L 180.06 246.93 L 180.73 245.36 L 181.78 243.99 L 183.84 242.27 L 186.44 240.82 L 189.26 239.64 L 192.14 238.64 L 197.29 236.89 L 199.28 235.91 L 200.30 234.97 L 201.28 233.10 L 201.66 231.70 L 201.60 230.62 L 201.18 229.62 L 200.40 228.65 L 199.18 227.71 L 197.02 226.49 L 194.64 225.48 L 192.01 224.69 L 187.95 223.89 L 183.77 223.44 L 179.60 223.27 L 175.79 223.29 L 173.45 223.71 L 170.22 224.94 L 162.85 228.47 L 158.74 230.37 L 154.43 232.08 L 151.47 233.01 L 148.56 233.64 L 145.69 233.97 L 142.82 233.92 L 140.06 233.38 L 137.36 232.34 L 134.75 230.66 L 132.76 228.75 L 131.31 226.60 L 130.28 224.19 L 129.64 221.66 L 129.38 218.97 L 129.60 214.90 L 130.42 210.90 L 131.72 207.09 L 133.28 203.87 L 135.12 201.07 L 136.79 199.34 L 133.27 199.04 L 129.46 199.23 L 125.30 199.95 L 119.07 201.71 L 112.33 204.25 L 105.56 207.22 L 98.59 210.50 L 84.84 217.00 L 78.07 219.83 L 71.79 222.00 L 67.58 223.08 L 63.72 223.66 L 60.18 223.79 L 54.20 223.41 L 48.73 222.67 L 43.74 221.60 L 38.89 220.06 L 34.33 218.02 L 30.04 215.48 L 26.08 212.44 L 22.19 208.68 L 18.37 204.11 L 14.55 198.69 L 11.72 194.07 L 9.71 190.15 L 8.01 186.06 L 6.90 182.64 L 6.29 179.81 L 5.85 175.67 L 5.93 172.68 L 6.47 168.36 L 6.96 165.47 L 7.82 162.76 L 9.07 160.21 L 10.63 157.83 L 12.42 155.63 L 14.45 153.60 L 17.78 150.93 L 21.27 148.75 L 24.89 147.02 L 28.21 145.88 L 31.45 145.24 L 33.94 145.21 L 30.83 144.12 L 27.84 142.67 L 24.96 140.84 L 22.27 138.73 L 19.78 136.36 L 17.48 133.73 L 15.42 130.90 L 13.63 127.94 L 12.13 124.83 L 10.92 121.60 L 10.06 118.36 L 9.55 115.09 L 9.07 108.32 L 9.07 100.50 L 9.43 95.21 L 10.23 89.60 L 11.49 83.66 L 13.22 77.85 L 15.61 71.82 L 18.74 65.55 L 22.72 58.96 L 26.77 53.09 L 30.88 47.90 L 35.05 43.33 L 39.62 38.97 L 44.23 35.15 L 48.86 31.83 L 53.54 28.98 L 60.10 25.68 L 66.68 23.05 L 73.28 21.08 L 80.04 19.63 L 86.73 18.66 L 93.37 18.18 L 100.04 18.08 L 106.54 18.31 L 112.88 18.84 L 122.24 20.09 L 130.89 21.65 L 136.24 22.91 L 139.87 23.96 L 144.27 25.43 L 148.76 27.19 L 153.49 29.38 L 158.08 31.96 L 162.40 34.98 L 165.08 37.25 L 167.44 39.73 L 169.52 42.40 L 171.95 46.36 L 174.04 50.48 L 175.81 54.77 L 177.89 61.37 L 179.30 67.85 L 180.13 74.29 L 180.38 80.07 L 180.16 83.21 L 179.44 87.44 L 178.38 91.88 L 176.92 96.85 L 175.21 101.85 L 173.28 106.83 L 171.14 111.65 L 168.97 115.92 L 166.61 119.80 L 164.44 122.63 L 170.38 121.95 L 176.78 121.53 L 183.25 121.49 L 189.63 121.90 L 193.84 122.49 L 197.79 123.36 L 201.49 124.49 L 205.03 125.99 L 208.13 127.84 L 210.85 130.02 L 212.61 131.91 L 214.09 134.06 L 215.29 136.48 L 216.21 139.22 L 217.07 143.75 L 217.34 147.57 L 217.11 150.80 L 216.41 153.97 L 215.42 156.65 L 214.14 158.92 L 212.56 161.00 L 210.89 162.74 L 209.14 164.16 L 206.35 165.93 L 203.92 167.10 L 207.65 166.00 L 211.36 165.14 L 215.01 164.63 L 218.06 164.62 L 219.96 164.95 L 221.39 165.60 L 222.46 166.52 L 223.11 167.73 L 223.33 169.43 L 222.99 171.86 L 221.96 174.39 L 220.41 176.59 L 218.28 178.49 L 215.83 180.07 L 212.99 181.48 L 209.74 182.72 L 204.68 184.25 L 199.34 185.59 L 189.10 188.16 L 185.91 189.18 L 183.23 190.29 L 180.99 191.49 L 176.88 194.40 L 174.42 196.65 L 172.61 198.93 L 171.79 200.61 L 171.45 202.23 L 171.51 203.40 L 171.99 205.05 L 172.52 205.95 L 173.33 206.51 L 174.54 206.75 L 176.61 206.61 L 179.34 205.97 L 185.20 203.90 L 190.98 201.73 L 193.60 200.94 L 195.48 200.64 L 203.42 200.49 L 210.20 200.82 L 215.94 201.56 L 220.23 202.52 L 224.03 203.79 L 227.38 205.34 L 230.35 207.17 L 233.06 209.37 L 235.52 211.96 L 237.73 214.98 L 239.69 218.48 L 240.33 220.33 L 240.51 222.37 L 240.17 224.43 L 239.26 226.48 L 238.37 227.72 L 237.17 228.89 L 235.62 229.99 L 229.66 233.12 L 223.04 236.04 L 219.94 237.18 L 217.75 237.82 L 216.50 238.32 L 215.40 239.17 L 214.55 240.25 L 214.10 241.41 L 214.13 242.56 L 214.75 243.62 L 215.21 244.11 L 217.47 245.09 L 224.29 247.12 L 233.20 249.30 L 242.18 251.24 L 249.23 252.55" fill="#6bb6d1" fill-rule="nonzero" group-id="1" node-id="18" stroke="none" target-height="237.22" target-width="243.37999" target-x="5.8499727" target-y="18.077593"></path></g><path d="M 100.63 9.04 C 100.63 14.03 96.58 18.08 91.59 18.08 C 86.60 18.08 82.55 14.03 82.55 9.04 C 82.55 4.05 86.60 0.00 91.59 0.00 C 96.58 -0.00 100.63 4.05 100.63 9.04 Z" fill="#6bb6d1" fill-rule="nonzero" node-id="21" stroke="none" target-height="18.08" target-width="18.079994" target-x="82.55" target-y="0"></path><path d="M 249.23 125.80 C 249.23 132.68 243.65 138.26 236.77 138.26 C 229.89 138.26 224.31 132.68 224.31 125.80 C 224.31 118.92 229.89 113.34 236.77 113.34 C 243.65 113.34 249.23 118.92 249.23 125.80 Z" fill="#fcf7ec" fill-rule="nonzero" node-id="23" stroke="none" target-height="24.919998" target-width="24.919998" target-x="224.31" target-y="113.34"></path><path d="M 27.30 251.21 C 27.30 258.75 21.19 264.86 13.65 264.86 C 6.11 264.86 0.00 258.75 0.00 251.21 C -0.00 243.67 6.11 237.56 13.65 237.56 C 21.19 237.56 27.30 243.67 27.30 251.21 Z" fill="#6bb6d1" fill-rule="nonzero" node-id="25" stroke="none" target-height="27.299988" target-width="27.3" target-x="0" target-y="237.56"></path><path d="M 56.98 81.26 C 56.98 87.13 52.22 91.89 46.35 91.89 C 40.48 91.89 35.72 87.13 35.72 81.26 C 35.72 75.39 40.48 70.63 46.35 70.63 C 52.22 70.63 56.98 75.39 56.98 81.26 Z" fill="#fcf7ec" fill-rule="nonzero" node-id="27" stroke="none" target-height="21.260002" target-width="21.259998" target-x="35.72" target-y="70.63"></path><path d="M 69.30 214.95 C 69.30 219.53 65.58 223.25 61.00 223.25 C 56.42 223.25 52.70 219.53 52.70 214.95 C 52.70 210.37 56.42 206.65 61.00 206.65 C 65.58 206.65 69.30 210.37 69.30 214.95 Z" fill="#fcf7ec" fill-rule="nonzero" node-id="29" stroke="none" target-height="16.600006" target-width="16.600002" target-x="52.7" target-y="206.65"></path></svg>