<svg xmlns="http://www.w3.org/2000/svg" xmlns:xlink="http://www.w3.org/1999/xlink" width="400" height="200" class="icon" p-id="1504" t="1685962221648" version="1.1" viewBox="0 0 2048 1024"><path fill="#285085" d="M1872 607.36c0 35.2-28.736 64-64 64H1696V357.376h112c35.264 0 64 28.672 64 64V607.36z m-304 203.328c0 35.2-28.736 64-64 64H192c-35.264 0-64-28.8-64-64v-607.36c0-35.264 28.736-64 64-64h1312c35.264 0 64 28.736 64 64v607.36z m240-581.312H1696v-25.984a192.256 192.256 0 0 0-192-192.064H192c-105.856 0-192 86.144-192 192v607.36c0 105.856 86.144 192 192 192h1312c105.856 0 192-86.144 192-192v-11.328h112c105.856 0 192-86.144 192-192V421.376c0-105.92-86.144-192-192-192z" p-id="1505"/></svg>